<?xml version="1.0" encoding="utf-8"?>
<!-- Generator: Adobe Illustrator 22.0.1, SVG Export Plug-In . SVG Version: 6.00 Build 0)  -->
<svg version="1.1" id="Layer_1" xmlns="http://www.w3.org/2000/svg" xmlns:xlink="http://www.w3.org/1999/xlink" x="0px" y="0px"
	 viewBox="0 0 1066.1 261.1" style="enable-background:new 0 0 1066.1 261.1;" xml:space="preserve">
<style type="text/css">
	.st0{fill:#494949;}
</style>
<g>
	<path class="st0" d="M904.5,83.1l-70-35c-5.7-2.8-12.4,1.3-12.4,7.7v109.2c0,3.2,1.8,6.2,4.7,7.7l70,35c5.7,2.8,12.4-1.3,12.4-7.7
		V90.8C909.2,87.5,907.4,84.6,904.5,83.1z"/>
	<path class="st0" d="M991.1,47.3l-70,37.1c-2.8,1.5-4.5,4.4-4.5,7.6v108.9c0,6.5,6.9,10.6,12.6,7.6l70-37.1
		c2.8-1.5,4.5-4.4,4.5-7.6V54.8C1003.6,48.4,996.8,44.2,991.1,47.3z"/>
	<path class="st0" d="M131.6,106.8c0-16.2-13.8-23.3-34.5-23.3H67.5L47,185.7h35.6c24,0,44.3-9.6,44.3-33.7
		c0-10.1-6.4-16.4-17.7-19.2l0.2-0.6C122.7,128.4,131.6,118.6,131.6,106.8z M83.6,169H71.8l5.8-28.9h11.9c11,0,16.5,4.5,16.5,12.8
		C106.1,163.5,98.1,169,83.6,169z M89.3,125h-8.7l5.1-24.9h7.6c11.3,0,16.2,3.6,16.2,10.3C109.6,119.3,103.6,125,89.3,125z"/>
	<path class="st0" d="M187.9,106c-23.5,0-45.3,18.9-45.3,47c0,20.9,13.1,34.7,34.5,34.7c23.5,0,45.3-18.9,45.3-47
		C222.3,119.7,209.3,106,187.9,106z M178.6,170.1c-8.8,0-14.3-6.4-14.3-17.8c0-16.8,10.6-28.7,21.9-28.7c8.8,0,14.3,6.4,14.3,17.8
		C200.6,158.2,189.9,170.1,178.6,170.1z"/>
	<path class="st0" d="M282,106c-23.5,0-45.3,18.9-45.3,47c0,20.9,13.1,34.7,34.5,34.7c23.5,0,45.3-18.9,45.3-47
		C316.5,119.7,303.5,106,282,106z M272.8,170.1c-8.8,0-14.3-6.4-14.3-17.8c0-16.8,10.6-28.7,21.9-28.7c8.8,0,14.3,6.4,14.3,17.8
		C294.8,158.2,284.1,170.1,272.8,170.1z"/>
	<polygon class="st0" points="396.2,107.8 359.9,140 359.3,140 372.4,75.8 350.8,75.8 328.8,185.7 350.3,185.7 353.9,167.2 
		371,152.9 385.9,185.7 407.8,185.7 385.9,140 421.1,107.8 	"/>
	<polygon class="st0" points="471.9,83.4 450.4,83.4 429.9,185.7 497.4,185.7 500.9,167.7 455,167.7 	"/>
	<path class="st0" d="M574.2,170.1c-5.5,0-9.4-2.6-9.4-9c0-1.3,0.3-2.7,0.6-4.1l11.5-49.1h-47.1l-3.5,16.8H552l-7.8,31.3
		c-0.9,3.4-1.4,6.4-1.4,9.4c0,13.9,9.8,22.3,24.8,22.3c9.6,0,16.5-1.7,23.3-4.6l-4.4-16.1C581.5,168.9,578,170.1,574.2,170.1z"/>
	<path class="st0" d="M567.8,95.4c8.8,0,15.9-6.4,15.9-14.9c0-7.9-5.8-12.2-13.8-12.2c-8.8,0-15.7,6.9-15.7,14.9
		C554.2,91.4,560.7,95.4,567.8,95.4z"/>
	<path class="st0" d="M655.9,122c8.8,0,17.3,4.2,23.5,9.4l11.7-12.6c-7.2-7.1-17.7-12.7-32.9-12.7c-17.5,0-32.9,8.5-32.9,25.1
		c0,11.8,8.5,18.8,24.3,23.9c11.5,3.7,15.3,5.6,15.3,10.1c0,4.4-4.5,6.5-11.7,6.5c-9.6,0-19.4-3.6-27.4-11.8l-11.8,13.5
		c8.4,8.7,21.1,14.3,35.7,14.3c19.9,0,35.5-7.8,35.5-25.5c0-12.7-9.3-18.7-23.3-23.4c-12-4.1-16.3-6.1-16.3-10.4
		C645.6,124.1,649.7,122,655.9,122z"/>
	<path class="st0" d="M761.4,84h-17.5l-8,23.8l-21.6,0.9l-3.2,15.9h20.4l-6,29.3c-0.9,4.2-1.3,7-1.3,10.2c0,14.3,7.9,23.5,26.4,23.5
		c12,0,23.4-3.5,30.4-8.2l-6.5-15c-4.7,2.9-10.9,5.6-17.3,5.6c-6.6,0-11.2-3.1-11.2-11c0-1.7,0-3.2,0.7-6l6-28.4h33.4l3.3-16.8
		h-33.1L761.4,84z"/>
</g>
</svg>
